<?xml version="1.0" encoding="UTF-8"?>
<svg xmlns="http://www.w3.org/2000/svg" viewBox="0 0 160 180"><g fill="#0cff00"><path d="M71.81,60.67l-1.45,2.12c-.75,1.11-2.09,1.52-3.44,1.05L14.53,45.86c-4.24-1.46-6.43-7.21-4.06-10.69l8.3-12.2c1.6-2.35,4.74-2.69,7.34-.78l44.28,32.47c1.94,1.42,2.61,4.26,1.41,6.01Z"/><path d="M108.86,83.94c13.4,5.99,26.81,11.97,40.21,17.96,4.09,1.83,7.78-1.43,6.95-6.15l-3.01-17.12c-.58-3.31-3.23-6.03-6.17-6.33l-38.74-3.93c-1.72-.17-2.7-2.67-1.49-3.79l22.28-20.72c2.55-2.37,2.1-7.19-.92-10.01l-12.79-11.92c-3.01-2.81-7.11-2.26-8.53,1.15l-12.46,29.94c-.68,1.63-2.96,1.06-3.49-.87l-11.74-43.09c-.9-3.29-3.76-5.72-6.66-5.64l-14.93.4c-4.11.11-6,5.03-3.57,9.29,7.92,13.88,15.83,27.76,23.75,41.65,3.11,5.46,6.81,10.55,11.1,14.97.69.71,1.41,1.43,2.17,2.14.35.34.71.66,1.06.98,5.19,4.71,10.97,8.4,16.99,11.09Z"/><path d="M104.1,94.44l1.45-2.13c1.19-1.75,3.7-1.63,5.32.26l36.82,42.95c2.18,2.54,2.61,6.2,1.01,8.56l-8.3,12.2c-2.37,3.48-7.65,2.28-9.81-2.23l-26.58-55.45c-.69-1.44-.65-3.05.11-4.16Z"/><path d="M63.03,69.71c-19.6,2.2-39.19,4.4-58.79,6.61-2.92.33-4.72,3.22-4.12,6.63l3.21,18.27c.76,4.33,4.93,7.35,8.34,6.06l56.43-21.4c1.5-.57,3,1.76,1.93,3l-42.96,49.84c-2.16,2.51-1.57,6.98,1.28,9.64l13.77,12.84c2.85,2.66,6.72,2.33,8.32-.71l31.69-60.32c.79-1.5,3.07-.33,2.93,1.52l-5.02,69.38c-.3,4.18,3.14,8.24,6.91,8.14l15.95-.43c2.98-.08,4.99-2.79,4.6-6.2-2.61-22.92-5.23-45.85-7.84-68.77-1.01-8.87-5.05-17.64-11.43-24.06-.29-.29-.58-.57-.88-.86-1.31-1.24-2.62-2.33-3.91-3.29-6.33-4.68-13.62-6.66-20.41-5.9Z"/></g></svg>